<?xml version="1.0" encoding="UTF-8" standalone="no"?>
<svg
   width="512"
   height="512"
   enable-background="new 0 0 512 512"
   viewBox="0 0 512 512"
   id="x"
   version="1.1"
   sodipodi:docname="X.svg"
   inkscape:version="1.4.2 (ebf0e940d0, 2025-05-08)"
   xmlns:inkscape="http://www.inkscape.org/namespaces/inkscape"
   xmlns:sodipodi="http://sodipodi.sourceforge.net/DTD/sodipodi-0.dtd"
   xmlns="http://www.w3.org/2000/svg"
   xmlns:svg="http://www.w3.org/2000/svg">
  <defs
     id="defs1" />
  <sodipodi:namedview
     id="namedview1"
     pagecolor="#ffffff"
     bordercolor="#999999"
     borderopacity="1"
     inkscape:showpageshadow="2"
     inkscape:pageopacity="0"
     inkscape:pagecheckerboard="0"
     inkscape:deskcolor="#d1d1d1"
     showgrid="false"
     inkscape:zoom="1.1297136"
     inkscape:cx="121.26968"
     inkscape:cy="246.96526"
     inkscape:window-width="1896"
     inkscape:window-height="1024"
     inkscape:window-x="0"
     inkscape:window-y="0"
     inkscape:window-maximized="1"
     inkscape:current-layer="x" />
  <path
     d="M 449.44138,-87.410534 H 62.558616 c -82.693257,0 -149.96915,67.275893 -149.96915,149.96915 V 449.44138 c 0,82.69326 67.275893,149.96915 149.96915,149.96915 H 449.44138 c 82.69326,0 149.96915,-67.27589 149.96915,-149.96915 V 62.558616 c 0,-82.693257 -67.27589,-149.96915 -149.96915,-149.96915 z M 564.00739,449.44138 c 0,63.17196 -51.39405,114.56601 -114.56601,114.56601 H 62.558616 c -63.17196086,0 -114.566003,-51.39405 -114.566003,-114.56601 V 62.558616 c 0,-63.17196086 51.39404214,-114.566003 114.566003,-114.566003 H 449.44138 c 63.17196,0 114.56601,51.39404214 114.56601,114.566003 z M 304.75155,223.52398 438.36303,56.994657 c 6.11766,-7.625838 4.89555,-18.7665 -2.72887,-24.88558 -7.62584,-6.116248 -18.7665,-4.896964 -24.88558,2.73029 L 282.05672,195.23687 153.36486,34.839367 c -3.36047,-4.187484 -8.4387,-6.624637 -13.80723,-6.624637 H 35.329347 c -6.808733,0 -13.014197,3.905676 -15.959739,10.044582 -2.945542,6.138905 -2.108612,13.423457 2.152511,18.733929 L 207.24703,288.47602 73.635553,455.00534 c -6.117664,7.62584 -4.895547,18.7665 2.728875,24.88558 3.268418,2.62125 7.179758,3.89435 11.067024,3.89435 5.183021,0 10.322141,-2.26722 13.818558,-6.62464 l 128.69327,-160.3975 128.69045,160.3975 c 3.36046,4.18749 8.43869,6.62464 13.80722,6.62464 h 104.22829 c 0.0113,0 0.0198,0 0.0283,0 9.77552,0 17.70157,-7.92464 17.70157,-17.70157 0,-4.5132 -1.68802,-8.62988 -4.46787,-11.75668 z M 380.93488,448.38212 72.227924,63.617878 H 131.06512 L 439.77208,448.38212 Z"
     id="path1"
     inkscape:label="path1"
     style="stroke-width:1.41613;fill:#ffffff" />
</svg>
